<svg xmlns="http://www.w3.org/2000/svg" xmlns:xlink="http://www.w3.org/1999/xlink" fill="none" version="1.1" width="28" height="28" viewBox="0 0 28 28"><defs><clipPath id="master_svg0_326_33833"><rect x="0" y="0" width="28" height="28" rx="0"/></clipPath><linearGradient x1="0" y1="0" x2="1" y2="1" id="master_svg1_48_9933"><stop offset="0%" stop-color="#FFFFFF" stop-opacity="1"/><stop offset="100%" stop-color="#FFFFFF" stop-opacity="0"/></linearGradient><clipPath id="master_svg2_326_33834"><rect x="5.8349609375" y="5.8349609375" width="16.329999923706055" height="16.329999923706055" rx="0"/></clipPath></defs><g clip-path="url(#master_svg0_326_33833)"><g><ellipse cx="14" cy="14" rx="14" ry="14" fill="url(#master_svg1_48_9933)" fill-opacity="1"/></g><g clip-path="url(#master_svg2_326_33834)"><g><path d="M20.12370078125,20.123476562500002L7.87621778125,20.123476562500002C7.50043378125,20.123476562500002,7.19580078125,19.8188765625,7.19580078125,19.4430765625L7.19580078125,14.331086562500001C7.19577944875,14.1343865625,7.28088818125,13.9472965625,7.42918378125,13.8180565625L9.91747078125,11.6482065625L9.91747078125,8.5563935625C9.91747078125,8.1806095625,10.222100781249999,7.8759765625,10.59788078125,7.8759765625L20.12370078125,7.8759765625C20.49950078125,7.8759765625,20.80410078125,8.1806095625,20.80410078125,8.5563935625L20.80410078125,19.4430765625C20.80410078125,19.8188765625,20.49950078125,20.123476562500002,20.12370078125,20.123476562500002ZM11.958720781250001,18.762676562499998L13.99997078125,18.762676562499998L13.99997078125,14.640676562500001L11.27830078125,12.2673865625L8.55663078125,14.640676562500001L8.55663078125,18.762676562499998L10.59788078125,18.762676562499998L10.59788078125,16.0409765625L11.958720781250001,16.0409765625L11.958720781250001,18.762676562499998ZM15.36080078125,18.762676562499998L19.443300781250002,18.762676562499998L19.443300781250002,9.2368065625L11.27830078125,9.2368065625L11.27830078125,10.6840565625C11.43752078125,10.6840565625,11.597420781250001,10.7398465625,11.725330781250001,10.852116562500001L15.127420781249999,13.8180565625C15.27569078125,13.9472465625,15.36080078125,14.1343365625,15.36080078125,14.331086562500001L15.36080078125,18.762676562499998ZM16.72163078125,13.3193065625L18.082500781249998,13.3193065625L18.082500781249998,14.6801465625L16.72163078125,14.6801465625L16.72163078125,13.3193065625ZM16.72163078125,16.0409765625L18.082500781249998,16.0409765625L18.082500781249998,17.4018065625L16.72163078125,17.4018065625L16.72163078125,16.0409765625ZM16.72163078125,10.5976465625L18.082500781249998,10.5976465625L18.082500781249998,11.9584765625L16.72163078125,11.9584765625L16.72163078125,10.5976465625ZM13.99997078125,10.5976465625L15.36080078125,10.5976465625L15.36080078125,11.9584765625L13.99997078125,11.9584765625L13.99997078125,10.5976465625Z" fill="#1A72FF" fill-opacity="1" style="mix-blend-mode:passthrough"/></g></g></g></svg>