<svg xmlns="http://www.w3.org/2000/svg" xmlns:xlink="http://www.w3.org/1999/xlink" fill="none" version="1.1" width="23" height="20" viewBox="0 0 23 20"><defs><linearGradient x1="0.5" y1="0" x2="0.5" y2="1" id="master_svg0_464_11042"><stop offset="0%" stop-color="#C9E1FF" stop-opacity="1"/><stop offset="100%" stop-color="#7790CA" stop-opacity="1"/></linearGradient></defs><g><g><path d="M22.9963,4.88159L20.2163,4.61891L21.8497,1.00654L16.9961,2.03051C17.2769,0.868225,17.4179,0.278948,17.4866,0C13.652,0.464913,9.89217,0.929826,6.13114,1.38544C3.13787,1.56806,0.84663,3.98335,0.972138,6.82376C0.918794,9.45797,-0.0348989,12.0928,0.00373057,14.7273C-0.108435,17.5864,2.32323,19.9542,5.34171,19.925C8.38414,20.0215,11.4352,20.0285,14.4776,19.925C17.2652,19.8756,19.5263,17.7703,19.628,15.1294C19.812,11.6263,19.8214,7.95234,23,4.87461L22.9963,4.88159Z" fill="url(#master_svg0_464_11042)" fill-opacity="1"/></g><g><path d="M13.19828,7.66667L9.621279999999999,7.66667L9.452729999999999,9L5.894471,9L6.34394,6L17,6L16.101100000000002,12L8.62872,12L8.29162,14.33333L15.0523,14.33333L15.8576,13.66667L15.5018,16L6.1192,16Q5.5761,16,5.257729,15.6579Q4.9393579,15.31579,5.0142687,14.80702L5.688466,10.33333L12.78627,10.33333L13.19828,7.66667Z" fill="#FFFFFF" fill-opacity="1"/></g></g></svg>