<svg xmlns="http://www.w3.org/2000/svg" xmlns:xlink="http://www.w3.org/1999/xlink" fill="none" version="1.1" width="54" height="54" viewBox="0 0 54 54"><defs><clipPath id="master_svg0_464_10642"><rect x="0" y="0" width="43.329349517822266" height="46.97041702270508" rx="0"/></clipPath><clipPath id="master_svg1_464_10636"><rect x="10.347305297851562" y="10.863906860351562" width="43.65269470214844" height="43.1360969543457" rx="0"/></clipPath><clipPath id="master_svg2_464_10638"><rect x="26.000137329101562" y="23.000015258789062" width="22" height="22" rx="0"/></clipPath></defs><g><g style="opacity:0.05999999865889549;" clip-path="url(#master_svg0_464_10642)"><g><path d="M19.7809,0.485193C20.9465,-0.161731,22.3828,-0.161731,23.5485,0.485193L41.4455,10.4172C42.6112,11.0639,43.3293,12.2595,43.3293,13.5532L43.3293,33.4172C43.3293,34.7109,42.6112,35.9065,41.4455,36.5533L23.5485,46.4852C22.3828,47.1321,20.9465,47.1321,19.7809,46.4852L1.88381,36.5533C0.718126,35.9065,0,34.7109,0,33.4172L0,13.5532C0,12.2595,0.718126,11.0639,1.88381,10.4172L19.7809,0.485193L19.7809,0.485193Z" fill="#0F62FE" fill-opacity="1" style="mix-blend-mode:passthrough"/></g></g><g clip-path="url(#master_svg1_464_10636)"><g><path d="M21.008766235351562,11.111216860351563C21.606266235351562,10.781470160351562,22.342466235351562,10.781470160351562,22.939966235351562,11.111216860351563L32.11346623535157,16.173686860351562C32.71096623535156,16.503366860351562,33.07896623535156,17.112766860351563,33.07896623535156,17.772196860351563L33.07896623535156,27.897106860351563C33.07896623535156,28.55660686035156,32.71096623535156,29.166006860351562,32.11346623535157,29.49560686035156L22.939966235351562,34.55810686035156C22.342466235351562,34.88790686035156,21.606266235351562,34.88790686035156,21.008766235351562,34.55810686035156L11.835346235351562,29.49560686035156C11.237855235351562,29.166006860351562,10.869766235351562,28.55660686035156,10.869766235351562,27.897106860351563L10.869766235351562,17.772196860351563C10.869766235351562,17.112766860351563,11.237855235351562,16.503366860351562,11.835346235351562,16.173686860351562L21.008766235351562,11.111216860351563L21.008766235351562,11.111216860351563Z" fill="#1EDFBA" fill-opacity="1" style="mix-blend-mode:passthrough"/></g><g><path d="M35.892980297851565,17.95621433300781C36.76548029785156,17.456917333007812,37.84148029785156,17.456917333007812,38.71398029785156,17.95621433300781L52.11478029785157,25.622671333007812C52.987580297851565,26.122001333007812,53.525280297851566,27.044781333007812,53.525280297851566,28.043441333007813L53.525280297851566,43.376341333007815C53.525280297851566,44.375041333007815,52.987580297851565,45.29784133300781,52.11478029785157,45.797141333007815L38.71398029785156,53.463641333007814C37.84148029785156,53.962841333007816,36.76548029785156,53.962841333007816,35.892980297851565,53.463641333007814L22.492140297851563,45.797141333007815C21.61936729785156,45.29784133300781,21.081680297851562,44.375041333007815,21.081680297851562,43.376341333007815L21.081680297851562,28.043441333007813C21.081680297851562,27.044781333007812,21.619366297851563,26.122001333007812,22.492140297851563,25.622671333007812L35.892980297851565,17.95621433300781Z" fill="#C1D0FF" fill-opacity="0.4000000059604645" style="mix-blend-mode:passthrough"/></g><g clip-path="url(#master_svg2_464_10638)"><g><path d="M42.001537329101566,29.500015258789062Q42.001537329101566,29.610485258789062,41.99546732910156,29.720815258789063Q41.98943732910156,29.831155258789064,41.97740732910157,29.941095258789062Q41.96536732910156,30.05102525878906,41.947357329101564,30.160305258789062Q41.929337329101564,30.26957525878906,41.905387329101565,30.377925258789062Q41.88143732910156,30.48626525878906,41.85160732910156,30.59342525878906Q41.82176732910156,30.70058525878906,41.78612732910156,30.806295258789063Q41.75048732910156,30.912005258789062,41.70912732910156,31.01601525878906Q41.667767329101565,31.120025258789063,41.620777329101564,31.222085258789065Q41.573797329101566,31.324145258789063,41.52130732910156,31.424015258789062Q41.468807329101566,31.52387525878906,41.410937329101564,31.62129525878906Q41.35305732910156,31.718725258789064,41.28993732910156,31.81347525878906Q41.226817329101564,31.908225258789063,41.158607329101564,32.00007525878906Q41.09039732910156,32.091935258789064,41.01725732910156,32.18066525878906Q40.94411732910156,32.26939525878906,40.866237329101565,32.354785258789065Q40.78834732910156,32.44017525878906,40.70589732910156,32.522025258789064Q40.62343732910156,32.60388525878906,40.53662732910156,32.681995258789065Q40.44980732910156,32.76010525878906,40.35883732910156,32.83429525878906Q40.26786732910156,32.908485258789064,40.172957329101564,32.97856525878906Q40.07805732910156,33.048645258789065,39.979437329101565,33.11444525878906Q39.880827329101564,33.18025525878906,39.77873732910156,33.241625258789064Q39.67665732910156,33.303005258789064,39.57134732910156,33.35979525878906Q39.46603732910156,33.41658525878906,39.35775732910156,33.46866525878906Q39.249477329101566,33.52073525878906,39.138487329101565,33.56796525878906Q39.027497329101564,33.615195258789065,38.91406732910156,33.65747525878906Q38.80063732910156,33.699745258789065,38.68503732910156,33.73696525878906Q38.56943732910156,33.774175258789064,38.45195732910156,33.80624525878906Q38.334467329101564,33.838315258789066,38.21536732910156,33.86515525878906Q38.096267329101565,33.891995258789066,37.975857329101565,33.913545258789064Q37.85543732910156,33.93509525878906,37.733987329101566,33.95130525878906Q37.61253732910156,33.967515258789064,37.49035732910156,33.97834525878906Q37.36816732910156,33.98917525878906,37.24554732910156,33.99459525878906Q37.12291732910156,34.00001525878906,37.00013732910156,34.00001525878906Q36.877357329101564,34.00001525878906,36.75473732910156,33.99459525878906Q36.632107329101565,33.98917525878906,36.50991732910156,33.97834525878906Q36.38773732910156,33.967515258789064,36.26628732910156,33.95130525878906Q36.14483732910156,33.93509525878906,36.02442732910156,33.913545258789064Q35.90400732910156,33.891995258789066,35.784907329101564,33.86515525878906Q35.665817329101564,33.838315258789066,35.54832732910156,33.80624525878906Q35.430837329101564,33.774175258789064,35.31523732910156,33.73696525878906Q35.19963732910156,33.699745258789065,35.08620732910156,33.65747525878906Q34.97277732910156,33.615195258789065,34.86178732910156,33.56796525878906Q34.75079732910156,33.52073525878906,34.642517329101565,33.46865525878906Q34.534237329101565,33.41658525878906,34.42892732910156,33.35979525878906Q34.32362732910156,33.303005258789064,34.221537329101565,33.241625258789064Q34.119457329101564,33.18025525878906,34.02083732910156,33.11444525878906Q33.92222732910156,33.048645258789065,33.82731732910156,32.97856525878906Q33.73240732910156,32.908485258789064,33.641437329101564,32.83429525878906Q33.550467329101565,32.76010525878906,33.46364732910156,32.681995258789065Q33.37683732910156,32.60388525878906,33.29438732910156,32.522025258789064Q33.21192732910156,32.44017525878906,33.13404732910156,32.354785258789065Q33.05615732910156,32.26939525878906,32.983017329101564,32.18066525878906Q32.909879329101564,32.091935258789064,32.84166932910156,32.00007525878906Q32.773458329101565,31.908225258789063,32.71033832910156,31.81347525878906Q32.64721932910156,31.718725258789064,32.58934232910156,31.62129525878906Q32.53146632910156,31.52387525878906,32.47897232910156,31.424015258789062Q32.42647932910156,31.324145258789063,32.37949432910156,31.222085258789065Q32.33251032910156,31.120025258789063,32.29114832910156,31.01601525878906Q32.24978632910156,30.912005258789062,32.21414632910156,30.806295258789063Q32.178506329101566,30.70058525878906,32.14867432910156,30.59342525878906Q32.11884132910156,30.48626525878906,32.09488922910156,30.377925258789062Q32.07093682910156,30.26957525878906,32.052921829101564,30.160305258789062Q32.034906829101566,30.05102525878906,32.02287262910156,29.941095258789062Q32.01083842910156,29.831155258789064,32.00481412910156,29.720815258789063Q31.99878978910156,29.610485258789062,31.99878978910156,29.500015258789062Q31.99878978910156,29.389545258789063,32.00481412910156,29.279215258789062Q32.01083842910156,29.16887525878906,32.02287262910156,29.058935258789063Q32.034906829101566,28.94900525878906,32.052921829101564,28.839725258789063Q32.07093682910156,28.730455258789064,32.09488922910156,28.622105258789063Q32.11884132910156,28.513765258789064,32.14867432910156,28.406605258789064Q32.178506329101566,28.299445258789063,32.21414632910156,28.19373525878906Q32.24978632910156,28.088025258789063,32.29114832910156,27.984015258789064Q32.33251032910156,27.879995258789062,32.37949432910156,27.777935258789064Q32.42647932910156,27.675875258789063,32.47897232910156,27.576015258789063Q32.53146632910156,27.476155258789063,32.58934232910156,27.37872525878906Q32.64721932910156,27.28130525878906,32.71033832910156,27.186555258789063Q32.773458329101565,27.091805258789062,32.84166932910156,26.99994525878906Q32.909879329101564,26.90809525878906,32.983017329101564,26.819365258789063Q33.05615732910156,26.730635258789064,33.13404732910156,26.645245258789064Q33.21192732910156,26.559855258789064,33.29438732910156,26.47799525878906Q33.37683732910156,26.396145258789062,33.46364732910156,26.318035258789063Q33.550467329101565,26.239925258789064,33.641437329101564,26.165735258789063Q33.73240732910156,26.09154525878906,33.82731732910156,26.021465258789064Q33.92222732910156,25.95138725878906,34.02083732910156,25.885581258789063Q34.119457329101564,25.81977525878906,34.221537329101565,25.75840225878906Q34.32362732910156,25.69702825878906,34.42892732910156,25.640236258789063Q34.534237329101565,25.58344425878906,34.642517329101565,25.531369258789063Q34.75079732910156,25.47929525878906,34.86178732910156,25.432063258789064Q34.97277732910156,25.384832258789064,35.08620732910156,25.342557258789064Q35.19963732910156,25.300282258789064,35.31523732910156,25.26306725878906Q35.430837329101564,25.225851258789064,35.54832732910156,25.19378325878906Q35.665817329101564,25.161716258789063,35.784907329101564,25.13487425878906Q35.90400732910156,25.108033258789064,36.02442732910156,25.086481458789063Q36.14483732910156,25.064930058789063,36.26628732910156,25.048720958789062Q36.38773732910156,25.032511858789064,36.50991732910156,25.021683958789062Q36.632107329101565,25.010856158789064,36.75473732910156,25.00543570878906Q36.877357329101564,25.000015258789062,37.00013732910156,25.000015258789062Q37.12291732910156,25.000015258789062,37.24554732910156,25.00543570878906Q37.36816732910156,25.010856158789064,37.49035732910156,25.021683958789062Q37.61253732910156,25.032511858789064,37.733987329101566,25.048720958789062Q37.85543732910156,25.064930058789063,37.975857329101565,25.086481458789063Q38.096267329101565,25.108033258789064,38.21536732910156,25.13487425878906Q38.334467329101564,25.161716258789063,38.45195732910156,25.19378325878906Q38.56943732910156,25.225851258789064,38.68503732910156,25.26306725878906Q38.80063732910156,25.300282258789064,38.91406732910156,25.342557258789064Q39.027497329101564,25.384832258789064,39.138487329101565,25.432063258789064Q39.249477329101566,25.47929525878906,39.35775732910156,25.531369258789063Q39.46603732910156,25.58344425878906,39.57134732910156,25.640236258789063Q39.67665732910156,25.69702825878906,39.77873732910156,25.75840225878906Q39.880827329101564,25.81977525878906,39.979437329101565,25.885581258789063Q40.07805732910156,25.95138725878906,40.172957329101564,26.021465258789064Q40.26786732910156,26.09154525878906,40.35883732910156,26.165735258789063Q40.44980732910156,26.239925258789064,40.53662732910156,26.318035258789063Q40.62343732910156,26.396145258789062,40.70589732910156,26.47799525878906Q40.78834732910156,26.559855258789064,40.866237329101565,26.645245258789064Q40.94411732910156,26.730635258789064,41.01725732910156,26.819365258789063Q41.09039732910156,26.90809525878906,41.158607329101564,26.99994525878906Q41.226817329101564,27.091805258789062,41.28993732910156,27.186555258789063Q41.35305732910156,27.28130525878906,41.410937329101564,27.37872525878906Q41.468807329101566,27.476155258789063,41.52130732910156,27.576015258789063Q41.573797329101566,27.675875258789063,41.620777329101564,27.777935258789064Q41.667767329101565,27.879995258789062,41.70912732910156,27.984015258789064Q41.75048732910156,28.088025258789063,41.78612732910156,28.19373525878906Q41.82176732910156,28.299445258789063,41.85160732910156,28.406605258789064Q41.88143732910156,28.513765258789064,41.905387329101565,28.622105258789063Q41.929337329101564,28.730455258789064,41.947357329101564,28.839725258789063Q41.96536732910156,28.94900525878906,41.97740732910157,29.058935258789063Q41.98943732910156,29.16887525878906,41.99546732910156,29.279215258789062Q42.001537329101566,29.389545258789063,42.001537329101566,29.500015258789062Z" fill="#FFFFFF" fill-opacity="1" style="mix-blend-mode:passthrough"/></g><g><path d="M41.395937329101564,35.00001525878906L32.60437732910156,35.00001525878906C30.611447329101562,35.00001525878906,29.000137329101562,36.788255258789064,29.000137329101562,39.00001525878906C29.000137329101562,41.211785258789064,30.611447329101562,43.00001525878906,32.60437732910156,43.00001525878906L41.395937329101564,43.00001525878906C43.38883732910156,43.00001525878906,45.00013732910156,41.211785258789064,45.00013732910156,39.00001525878906C45.00013732910156,36.78824525878906,43.38883732910156,35.00001525878906,41.395937329101564,35.00001525878906Z" fill="#FFFFFF" fill-opacity="1" style="mix-blend-mode:passthrough"/></g></g></g></g></svg>