<svg xmlns="http://www.w3.org/2000/svg" xmlns:xlink="http://www.w3.org/1999/xlink" fill="none" version="1.1" width="54" height="54" viewBox="0 0 54 54"><defs><clipPath id="master_svg0_464_10714"><rect x="0" y="0" width="43.329349517822266" height="46.97041702270508" rx="0"/></clipPath><clipPath id="master_svg1_464_10704"><rect x="10.347305297851562" y="10.863906860351562" width="43.65269470214844" height="43.1360969543457" rx="0"/></clipPath></defs><g><g style="opacity:0.05999999865889549;" clip-path="url(#master_svg0_464_10714)"><g><path d="M19.7809,0.485193C20.9465,-0.161731,22.3828,-0.161731,23.5485,0.485193L41.4455,10.4172C42.6112,11.0639,43.3293,12.2595,43.3293,13.5532L43.3293,33.4172C43.3293,34.7109,42.6112,35.9065,41.4455,36.5533L23.5485,46.4852C22.3828,47.1321,20.9465,47.1321,19.7809,46.4852L1.88381,36.5533C0.718126,35.9065,0,34.7109,0,33.4172L0,13.5532C0,12.2595,0.718126,11.0639,1.88381,10.4172L19.7809,0.485193L19.7809,0.485193Z" fill="#0F62FE" fill-opacity="1" style="mix-blend-mode:passthrough"/></g></g><g clip-path="url(#master_svg1_464_10704)"><g><path d="M21.008766235351562,11.111216860351563C21.606266235351562,10.781470160351562,22.342466235351562,10.781470160351562,22.939966235351562,11.111216860351563L32.11346623535157,16.173686860351562C32.71096623535156,16.503366860351562,33.07896623535156,17.112766860351563,33.07896623535156,17.772196860351563L33.07896623535156,27.897106860351563C33.07896623535156,28.55660686035156,32.71096623535156,29.166006860351562,32.11346623535157,29.49560686035156L22.939966235351562,34.55810686035156C22.342466235351562,34.88790686035156,21.606266235351562,34.88790686035156,21.008766235351562,34.55810686035156L11.835346235351562,29.49560686035156C11.237855235351562,29.166006860351562,10.869766235351562,28.55660686035156,10.869766235351562,27.897106860351563L10.869766235351562,17.772196860351563C10.869766235351562,17.112766860351563,11.237855235351562,16.503366860351562,11.835346235351562,16.173686860351562L21.008766235351562,11.111216860351563L21.008766235351562,11.111216860351563Z" fill="#91F1F1" fill-opacity="1" style="mix-blend-mode:passthrough"/></g><g><path d="M35.892980297851565,17.95621433300781C36.76548029785156,17.456917333007812,37.84148029785156,17.456917333007812,38.71398029785156,17.95621433300781L52.11478029785157,25.622671333007812C52.987580297851565,26.122001333007812,53.525280297851566,27.044781333007812,53.525280297851566,28.043441333007813L53.525280297851566,43.376341333007815C53.525280297851566,44.375041333007815,52.987580297851565,45.29784133300781,52.11478029785157,45.797141333007815L38.71398029785156,53.463641333007814C37.84148029785156,53.962841333007816,36.76548029785156,53.962841333007816,35.892980297851565,53.463641333007814L22.492140297851563,45.797141333007815C21.61936729785156,45.29784133300781,21.081680297851562,44.375041333007815,21.081680297851562,43.376341333007815L21.081680297851562,28.043441333007813C21.081680297851562,27.044781333007812,21.619366297851563,26.122001333007812,22.492140297851563,25.622671333007812L35.892980297851565,17.95621433300781Z" fill="#C1D0FF" fill-opacity="0.4000000059604645" style="mix-blend-mode:passthrough"/></g><g><path d="M37.50013732910156,44.00001525878906Q37.73334732910156,44.00001525878906,37.96627732910156,43.98861525878907Q38.199237329101564,43.97711525878906,38.43133732910157,43.954315258789066Q38.66343732910156,43.93141525878906,38.894037329101565,43.89721525878906Q39.12473732910156,43.86301525878906,39.35353732910156,43.81751525878906Q39.58223732910156,43.77201525878906,39.808437329101565,43.71531525878906Q40.034637329101564,43.65861525878906,40.25783732910156,43.59091525878907Q40.48103732910156,43.523215258789065,40.70063732910156,43.44471525878906Q40.920137329101564,43.366115258789065,41.13563732910156,43.27691525878906Q41.35103732910156,43.187615258789066,41.56193732910156,43.08791525878907Q41.77273732910156,42.98821525878906,41.97843732910157,42.87821525878906Q42.184037329101564,42.76831525878906,42.38413732910156,42.64841525878906Q42.584137329101566,42.528515258789064,42.778037329101565,42.39901525878906Q42.971937329101564,42.26941525878907,43.159237329101565,42.13051525878906Q43.34663732910156,41.991515258789065,43.52683732910156,41.84361525878906Q43.70713732910156,41.69561525878906,43.879937329101566,41.539015258789064Q44.05273732910156,41.38241525878907,44.217637329101564,41.217515258789064Q44.38253732910157,41.05261525878906,44.539137329101564,40.879815258789066Q44.69573732910156,40.70701525878906,44.84373732910156,40.52671525878906Q44.991637329101565,40.34651525878906,45.13063732910156,40.159115258789065Q45.26953732910157,39.971815258789064,45.39913732910156,39.777915258789065Q45.528637329101564,39.584015258789066,45.64853732910156,39.38401525878906Q45.76843732910156,39.183915258789064,45.87843732910156,38.97831525878907Q45.98833732910156,38.77261525878906,46.08803732910157,38.56181525878906Q46.187737329101566,38.35091525878906,46.27703732910156,38.13551525878906Q46.366237329101565,37.920015258789064,46.44483732910156,37.70051525878906Q46.523337329101565,37.48091525878906,46.59103732910157,37.25771525878906Q46.65873732910156,37.034515258789064,46.71543732910156,36.808315258789065Q46.77213732910156,36.58211525878906,46.81763732910156,36.35341525878906Q46.86313732910156,36.12461525878906,46.89733732910156,35.893915258789065Q46.93153732910156,35.66331525878906,46.954437329101566,35.43121525878907Q46.97723732910156,35.199115258789064,46.98873732910157,34.96615525878906Q47.00013732910156,34.73322525878906,47.00013732910156,34.50001525878906Q47.00013732910156,34.26680525878906,46.98873732910157,34.03387525878907Q46.97723732910156,33.80094525878906,46.954437329101566,33.568855258789064Q46.93153732910156,33.336765258789065,46.89733732910156,33.10607525878906Q46.86313732910156,32.875385258789066,46.81763732910156,32.64665525878906Q46.77213732910156,32.41792525878906,46.71543732910156,32.191705258789064Q46.65873732910156,31.965485258789062,46.59103732910157,31.742315258789063Q46.523337329101565,31.519145258789063,46.44483732910156,31.299565258789062Q46.366237329101565,31.079985258789062,46.27703732910156,30.86452525878906Q46.187737329101566,30.64906525878906,46.08803732910157,30.438245258789063Q45.98833732910156,30.22742525878906,45.87833732910156,30.02174525878906Q45.76843732910156,29.816075258789063,45.64853732910156,29.61603525878906Q45.528637329101564,29.416005258789063,45.39913732910156,29.22209525878906Q45.26953732910157,29.028185258789062,45.13063732910156,28.84087525878906Q44.991637329101565,28.653555258789062,44.84373732910156,28.473275258789062Q44.69573732910156,28.293005258789062,44.539137329101564,28.120205258789063Q44.38253732910157,27.94740525878906,44.217637329101564,27.78250525878906Q44.05273732910156,27.617595258789063,43.879937329101566,27.460975258789063Q43.70713732910156,27.304365258789062,43.52683732910156,27.156415258789064Q43.34663732910156,27.008465258789062,43.159237329101565,26.869545258789064Q42.971937329101564,26.73061525878906,42.778037329101565,26.601055258789064Q42.584137329101566,26.471485258789063,42.38413732910156,26.35159525878906Q42.184037329101564,26.231695258789063,41.97843732910157,26.12176525878906Q41.77273732910156,26.011825258789063,41.56193732910156,25.912117258789063Q41.35103732910156,25.812406258789064,41.13563732910156,25.723159258789064Q40.920137329101564,25.63391325878906,40.70063732910156,25.55534625878906Q40.48103732910156,25.476780258789063,40.25783732910156,25.409082258789063Q40.034637329101564,25.341384258789063,39.808437329101565,25.284718258789063Q39.58223732910156,25.228052258789063,39.35353732910156,25.182555258789062Q39.12473732910156,25.137057258789063,38.894037329101565,25.102838258789063Q38.66343732910156,25.068619158789062,38.43133732910157,25.045760358789064Q38.199237329101564,25.022901558789062,37.96627732910156,25.01145845878906Q37.73334732910156,25.000015258789062,37.50013732910156,25.000015258789062Q37.26692732910156,25.000015258789062,37.03399732910157,25.01145845878906Q36.80106732910156,25.022901558789062,36.568977329101564,25.045760358789064Q36.336887329101565,25.068619158789062,36.10619732910156,25.102838258789063Q35.875507329101566,25.137057258789063,35.64677732910156,25.182555258789062Q35.41804732910156,25.228052258789063,35.191827329101564,25.284718258789063Q34.96560732910156,25.341384258789063,34.74243732910156,25.409082258789063Q34.51926732910156,25.476780258789063,34.29968732910156,25.55534625878906Q34.080107329101565,25.63391325878906,33.864647329101565,25.723159258789064Q33.649187329101565,25.812406258789064,33.43836732910156,25.912117258789063Q33.22754732910156,26.011825258789063,33.02186732910156,26.12176525878906Q32.81619732910156,26.231695258789063,32.61615732910156,26.35159525878906Q32.41612732910156,26.471485258789063,32.22221732910156,26.601055258789064Q32.028307329101565,26.73061525878906,31.84099732910156,26.869545258789064Q31.653677329101562,27.008465258789062,31.473397329101562,27.156415258789064Q31.293127329101562,27.304365258789062,31.120327329101563,27.460975258789063Q30.94752732910156,27.617595258789063,30.78262732910156,27.78250525878906Q30.617717329101563,27.94740525878906,30.461097329101563,28.120205258789063Q30.304487329101562,28.293005258789062,30.156537329101564,28.473275258789062Q30.008587329101562,28.653555258789062,29.869667329101564,28.84087525878906Q29.73073732910156,29.028185258789062,29.601177329101564,29.22209525878906Q29.471607329101563,29.416005258789063,29.35171732910156,29.61603525878906Q29.231817329101563,29.816075258789063,29.12188732910156,30.02174525878906Q29.011947329101563,30.22742525878906,28.912239329101563,30.438245258789063Q28.812528329101564,30.64906525878906,28.723281329101564,30.86452525878906Q28.63403532910156,31.079985258789062,28.55546832910156,31.299565258789062Q28.476902329101563,31.519145258789063,28.409204329101563,31.742315258789063Q28.341506329101563,31.965485258789062,28.284840329101563,32.191705258789064Q28.228174329101563,32.41792525878906,28.182677329101562,32.64665525878906Q28.137179329101563,32.875385258789066,28.102960329101563,33.10607525878906Q28.068741229101562,33.336765258789065,28.045882429101564,33.568855258789064Q28.023023629101562,33.80094525878906,28.01158052910156,34.03387525878907Q28.000137329101562,34.26680525878906,28.000137329101562,34.50001525878906Q28.000137329101562,34.73322525878906,28.01158052910156,34.96615525878906Q28.023023629101562,35.199115258789064,28.045882429101564,35.43121525878907Q28.068741229101562,35.66331525878906,28.102960329101563,35.893915258789065Q28.137179329101563,36.12461525878906,28.182677329101562,36.35341525878906Q28.228174329101563,36.58211525878906,28.284840329101563,36.808315258789065Q28.341506329101563,37.034515258789064,28.409204329101563,37.25771525878906Q28.476902329101563,37.48091525878906,28.55546832910156,37.70051525878906Q28.63403532910156,37.920015258789064,28.723281329101564,38.13551525878906Q28.812528329101564,38.35091525878906,28.912239329101563,38.56181525878906Q29.011947329101563,38.77261525878906,29.12188732910156,38.97831525878907Q29.231817329101563,39.183915258789064,29.35171732910156,39.38401525878906Q29.471607329101563,39.584015258789066,29.601177329101564,39.777915258789065Q29.73073732910156,39.971815258789064,29.869667329101564,40.159115258789065Q30.008587329101562,40.34651525878906,30.156537329101564,40.52671525878906Q30.304487329101562,40.70701525878906,30.461097329101563,40.879815258789066Q30.617717329101563,41.05261525878906,30.78262732910156,41.217515258789064Q30.94752732910156,41.38241525878907,31.120327329101563,41.539015258789064Q31.293127329101562,41.69561525878906,31.473397329101562,41.84361525878906Q31.653677329101562,41.991515258789065,31.84099732910156,42.13051525878906Q32.028307329101565,42.26941525878907,32.22221732910156,42.39901525878906Q32.41612732910156,42.528515258789064,32.61615732910156,42.64841525878906Q32.81619732910156,42.76831525878906,33.02186732910156,42.87831525878906Q33.22754732910156,42.98821525878906,33.43836732910156,43.08791525878907Q33.649187329101565,43.187615258789066,33.864647329101565,43.27691525878906Q34.080107329101565,43.366115258789065,34.29968732910156,43.44471525878906Q34.51926732910156,43.523215258789065,34.74243732910156,43.59091525878907Q34.96560732910156,43.65861525878906,35.191827329101564,43.71531525878906Q35.41804732910156,43.77201525878906,35.64677732910156,43.81751525878906Q35.875507329101566,43.86301525878906,36.10619732910156,43.89721525878906Q36.336887329101565,43.93141525878906,36.568977329101564,43.954315258789066Q36.80106732910156,43.97711525878906,37.03399732910157,43.98861525878907Q37.26692732910156,44.00001525878906,37.50013732910156,44.00001525878906ZM42.29623732910156,39.04001525878906L41.080237329101564,29.98402525878906L34.77623732910156,29.98402525878906L35.24023732910156,30.43202525878906L31.704237329101563,39.04001525878906L34.31223732910156,39.04001525878906L35.384237329101566,36.57601525878906L39.22423732910156,36.57601525878906L39.54423732910156,39.04001525878906L42.29623732910156,39.04001525878906ZM36.00823732910156,35.04001525878906L37.54423732910156,31.52002525878906L38.616237329101565,31.52002525878906L39.080237329101564,35.04001525878906L36.00823732910156,35.04001525878906Z" fill-rule="evenodd" fill="#FFFFFF" fill-opacity="1"/></g></g></g></svg>