<svg xmlns="http://www.w3.org/2000/svg" xmlns:xlink="http://www.w3.org/1999/xlink" fill="none" version="1.1" width="72" height="72" viewBox="0 0 72 72"><defs><clipPath id="master_svg0_166_6859"><rect x="0" y="0" width="72" height="72" rx="0"/></clipPath><linearGradient x1="0" y1="0.5" x2="1" y2="0.5" id="master_svg1_121_09147"><stop offset="0%" stop-color="#8CCBF9" stop-opacity="1"/><stop offset="100%" stop-color="#186DFF" stop-opacity="1"/></linearGradient></defs><g clip-path="url(#master_svg0_166_6859)"><g><path d="M18.7827,7.320222C19.535899999999998,6.893259,20.464100000000002,6.893259,21.2173,7.320222L32.7827,13.875219999999999C33.5359,14.30209,34,15.09117,34,15.94501L34,29.055C34,29.9088,33.5359,30.6979,32.7827,31.1248L21.2173,37.6798C20.464100000000002,38.106700000000004,19.535899999999998,38.106700000000004,18.7827,37.6798L7.21734,31.1248C6.464063,30.6979,6,29.9088,6,29.055L6,15.94501C6,15.09209,6.463057,14.303799999999999,7.2148900000000005,13.87661C7.21669,13.87558,7.21824,13.87471,7.2200500000000005,13.87368L18.7827,7.320222L18.7827,7.320222Z" fill="url(#master_svg1_121_09147)" fill-opacity="1"/></g><g><path d="M42.0564310546875,12.1083233671875C43.4953310546875,11.2749273671875,45.2702310546875,11.2749273671875,46.7092310546875,12.1083233671875L68.81233105468749,24.9046763671875C70.2519310546875,25.7381763671875,71.1387310546875,27.278376367187498,71.1387310546875,28.9452763671875L71.1387310546875,54.5379763671875C71.1387310546875,56.2048763671875,70.2519310546875,57.7451763671875,68.81233105468749,58.5785763671875L46.7092310546875,71.3749763671875C45.2702310546875,72.2082763671875,43.4954310546875,72.2082763671875,42.0564310546875,71.3749763671875L19.9532210546875,58.5785763671875C18.5136830546875,57.7451763671875,17.6268310546875,56.2048763671875,17.6268310546875,54.5379763671875L17.6268310546875,28.9452763671875C17.6268310546875,27.278376367187498,18.5136820546875,25.7381763671875,19.9532210546875,24.9046763671875L42.0564310546875,12.1083233671875Z" fill="#C1D0FF" fill-opacity="0.4000000059604645" style="mix-blend-mode:passthrough"/></g><g><path d="M49.15063,48.1685L42.40063,44.7935C41.542315,44.364999999999995,41,43.4881,41,42.5289L41,30.40393C41.0695896,29.05671,42.18223,28,43.53125,28C44.88027,28,45.99291,29.05671,46.0625,30.40393L46.0625,40.9595L51.4119,43.6359C52.4577,44.1655,53.004,45.343199999999996,52.7327,46.4837C52.4614,47.6241,51.4434,48.4298,50.27113,48.431799999999996C49.88281,48.4307,49.49975,48.341899999999995,49.15063,48.1719L49.15063,48.1685Z" fill="#FFFFFF" fill-opacity="1"/></g></g></svg>
